<svg xmlns="http://www.w3.org/2000/svg" viewBox="0 0 512 512" width="512" height="512">
  <defs>
    <linearGradient id="bg" x1="0" y1="0" x2="0" y2="1">
      <stop offset="0%" stop-color="#1565c0"/>
      <stop offset="100%" stop-color="#0d47a1"/>
    </linearGradient>
    <linearGradient id="disp" x1="0" y1="0" x2="1" y2="0">
      <stop offset="0%" stop-color="#e8e8e8"/>
      <stop offset="50%" stop-color="#f5f5f5"/>
      <stop offset="100%" stop-color="#e0e0e0"/>
    </linearGradient>
    <linearGradient id="screen" x1="0" y1="0" x2="0" y2="1">
      <stop offset="0%" stop-color="#1a237e"/>
      <stop offset="100%" stop-color="#283593"/>
    </linearGradient>
  </defs>
  <rect width="512" height="512" rx="100" fill="url(#bg)"/>
  <g transform="translate(256,320)">
    <circle cx="0" cy="-250" r="48" fill="#fff" opacity="0.12"/>
    <text x="0" y="-236" text-anchor="middle" fill="#fff" font-size="54" font-family="Arial,sans-serif" font-weight="bold" opacity="0.35">€</text>
    <rect x="-96" y="-192" width="192" height="350" rx="32" fill="url(#disp)" stroke="#bdbdbd" stroke-width="4"/>
    <rect x="-104" y="-206" width="208" height="44" rx="22" fill="#1565c0"/>
    <rect x="-80" y="-154" width="160" height="96" rx="16" fill="url(#screen)"/>
    <text x="0" y="-90" text-anchor="middle" fill="#4caf50" font-size="34" font-family="Arial,sans-serif" font-weight="bold">1,599</text>
    <text x="0" y="-87" text-anchor="middle" fill="#4caf50" font-size="13" font-family="Arial,sans-serif" opacity="0.6">————————————————</text>
    <text x="0" y="-63" text-anchor="middle" fill="#4caf50" font-size="18" font-family="Arial,sans-serif">€/L</text>
    <line x1="-54" y1="-138" x2="-54" y2="-70" stroke="#4caf50" stroke-width="2" opacity="0.6"/>
    <line x1="-38" y1="-130" x2="-38" y2="-78" stroke="#4caf50" stroke-width="2" opacity="0.5"/>
    <line x1="-22" y1="-122" x2="-22" y2="-86" stroke="#4caf50" stroke-width="2" opacity="0.4"/>
    <rect x="-54" y="-42" width="108" height="16" rx="6" fill="#bdbdbd" opacity="0.5"/>
    <rect x="-54" y="-22" width="108" height="6" rx="3" fill="#bdbdbd" opacity="0.3"/>
    <rect x="-64" y="26" width="38" height="60" rx="8" fill="#2e7d32"/>
    <rect x="26" y="26" width="38" height="60" rx="8" fill="#c62828"/>
    <circle cx="-45" cy="46" r="9" fill="#fff" opacity="0.8"/>
    <circle cx="45" cy="46" r="9" fill="#fff" opacity="0.8"/>
    <path d="M96 -74 Q176 -54 176 36 Q176 90 156 100 L138 100 Q138 84 156 74 Q164 64 164 36 Q164 -32 96 -54 Z" fill="#b71c1c"/>
    <rect x="96" y="-32" width="54" height="14" rx="7" fill="#757575"/>
    <rect x="144" y="74" width="22" height="32" rx="5" fill="#424242"/>
    <rect x="-112" y="150" width="224" height="20" rx="10" fill="#e65100"/>
  </g>
</svg>
